<mxfile host="app.diagrams.net" modified="2023-11-22T08:46:38.784Z" agent="Mozilla/5.0 (Macintosh; Intel Mac OS X 10.15; rv:120.0) Gecko/20100101 Firefox/120.0" etag="yaksAMan_ttcsgRYHCd7" version="22.1.3" type="device">
  <diagram name="Page-1" id="lhZgCezonLT-a46nOEmL">
    <mxGraphModel dx="1306" dy="751" grid="1" gridSize="10" guides="1" tooltips="1" connect="1" arrows="1" fold="1" page="1" pageScale="1" pageWidth="1654" pageHeight="2336" math="0" shadow="0">
      <root>
        <mxCell id="0" />
        <mxCell id="1" parent="0" />
        <mxCell id="6euVcw4S73GybOG8O7bd-1" value="" style="rounded=1;whiteSpace=wrap;html=1;fillColor=#fff2cc;strokeColor=#d6b656;" vertex="1" parent="1">
          <mxGeometry x="60" y="120" width="120" height="60" as="geometry" />
        </mxCell>
        <mxCell id="6euVcw4S73GybOG8O7bd-2" value="&lt;font style=&quot;font-size: 18px;&quot;&gt;User&lt;/font&gt;" style="rounded=1;whiteSpace=wrap;html=1;fillColor=#fff2cc;strokeColor=#d6b656;" vertex="1" parent="1">
          <mxGeometry x="60" y="510" width="120" height="60" as="geometry" />
        </mxCell>
        <mxCell id="6euVcw4S73GybOG8O7bd-3" value="&lt;font style=&quot;font-size: 18px;&quot;&gt;System&lt;/font&gt;" style="rounded=1;whiteSpace=wrap;html=1;fillColor=#e1d5e7;strokeColor=#9673a6;" vertex="1" parent="1">
          <mxGeometry x="380" y="120" width="120" height="60" as="geometry" />
        </mxCell>
        <mxCell id="6euVcw4S73GybOG8O7bd-4" value="&lt;font style=&quot;font-size: 18px;&quot;&gt;System&lt;/font&gt;" style="rounded=1;whiteSpace=wrap;html=1;fillColor=#e1d5e7;strokeColor=#9673a6;" vertex="1" parent="1">
          <mxGeometry x="380" y="510" width="120" height="60" as="geometry" />
        </mxCell>
        <mxCell id="6euVcw4S73GybOG8O7bd-5" value="&lt;font style=&quot;font-size: 18px;&quot;&gt;CreditCard_Service&lt;/font&gt;" style="rounded=1;whiteSpace=wrap;html=1;fillColor=#ffe6cc;strokeColor=#d79b00;" vertex="1" parent="1">
          <mxGeometry x="620" y="120" width="200" height="60" as="geometry" />
        </mxCell>
        <mxCell id="6euVcw4S73GybOG8O7bd-6" value="&lt;font style=&quot;font-size: 18px;&quot;&gt;CreditCard_Service&lt;/font&gt;" style="rounded=1;whiteSpace=wrap;html=1;fillColor=#ffe6cc;strokeColor=#d79b00;" vertex="1" parent="1">
          <mxGeometry x="620" y="510" width="200" height="60" as="geometry" />
        </mxCell>
        <mxCell id="6euVcw4S73GybOG8O7bd-7" value="" style="endArrow=none;dashed=1;html=1;rounded=0;entryX=0.5;entryY=1;entryDx=0;entryDy=0;exitX=0.5;exitY=0;exitDx=0;exitDy=0;" edge="1" parent="1" source="6euVcw4S73GybOG8O7bd-2" target="6euVcw4S73GybOG8O7bd-1">
          <mxGeometry width="50" height="50" relative="1" as="geometry">
            <mxPoint x="120" y="390" as="sourcePoint" />
            <mxPoint x="200" y="260" as="targetPoint" />
          </mxGeometry>
        </mxCell>
        <mxCell id="6euVcw4S73GybOG8O7bd-8" value="" style="endArrow=none;dashed=1;html=1;rounded=0;entryX=0.5;entryY=1;entryDx=0;entryDy=0;exitX=0.5;exitY=0;exitDx=0;exitDy=0;" edge="1" parent="1" source="6euVcw4S73GybOG8O7bd-4" target="6euVcw4S73GybOG8O7bd-3">
          <mxGeometry width="50" height="50" relative="1" as="geometry">
            <mxPoint x="459.5" y="400" as="sourcePoint" />
            <mxPoint x="459.5" y="180" as="targetPoint" />
          </mxGeometry>
        </mxCell>
        <mxCell id="6euVcw4S73GybOG8O7bd-9" value="" style="endArrow=none;dashed=1;html=1;rounded=0;exitX=0.5;exitY=0;exitDx=0;exitDy=0;entryX=0.5;entryY=1;entryDx=0;entryDy=0;" edge="1" parent="1" source="6euVcw4S73GybOG8O7bd-6" target="6euVcw4S73GybOG8O7bd-5">
          <mxGeometry width="50" height="50" relative="1" as="geometry">
            <mxPoint x="819.5" y="400" as="sourcePoint" />
            <mxPoint x="760" y="190" as="targetPoint" />
          </mxGeometry>
        </mxCell>
        <mxCell id="6euVcw4S73GybOG8O7bd-10" value="" style="endArrow=classic;html=1;rounded=0;" edge="1" parent="1">
          <mxGeometry width="50" height="50" relative="1" as="geometry">
            <mxPoint x="120" y="200" as="sourcePoint" />
            <mxPoint x="440" y="200" as="targetPoint" />
          </mxGeometry>
        </mxCell>
        <mxCell id="6euVcw4S73GybOG8O7bd-11" value="" style="endArrow=classic;html=1;rounded=0;" edge="1" parent="1">
          <mxGeometry width="50" height="50" relative="1" as="geometry">
            <mxPoint x="440" y="260" as="sourcePoint" />
            <mxPoint x="120" y="260" as="targetPoint" />
          </mxGeometry>
        </mxCell>
        <mxCell id="6euVcw4S73GybOG8O7bd-12" value="" style="endArrow=classic;html=1;rounded=0;" edge="1" parent="1">
          <mxGeometry width="50" height="50" relative="1" as="geometry">
            <mxPoint x="440" y="320" as="sourcePoint" />
            <mxPoint x="720" y="320" as="targetPoint" />
          </mxGeometry>
        </mxCell>
        <mxCell id="6euVcw4S73GybOG8O7bd-13" value="" style="endArrow=classic;html=1;rounded=0;" edge="1" parent="1">
          <mxGeometry width="50" height="50" relative="1" as="geometry">
            <mxPoint x="720" y="360" as="sourcePoint" />
            <mxPoint x="440" y="360" as="targetPoint" />
          </mxGeometry>
        </mxCell>
        <mxCell id="6euVcw4S73GybOG8O7bd-14" value="&lt;font style=&quot;font-size: 18px;&quot;&gt;User&lt;/font&gt;" style="text;html=1;strokeColor=none;fillColor=none;align=center;verticalAlign=middle;whiteSpace=wrap;rounded=0;" vertex="1" parent="1">
          <mxGeometry x="70" y="135" width="100" height="30" as="geometry" />
        </mxCell>
        <mxCell id="6euVcw4S73GybOG8O7bd-15" value="&lt;font style=&quot;font-size: 18px;&quot;&gt;Select Payment Method&lt;/font&gt;" style="text;whiteSpace=wrap;html=1;" vertex="1" parent="1">
          <mxGeometry x="180" y="170" width="210" height="50" as="geometry" />
        </mxCell>
        <mxCell id="6euVcw4S73GybOG8O7bd-16" value="&lt;font style=&quot;font-size: 18px;&quot;&gt;Prompt for Payment Method&lt;/font&gt;" style="text;whiteSpace=wrap;html=1;" vertex="1" parent="1">
          <mxGeometry x="170" y="230" width="230" height="50" as="geometry" />
        </mxCell>
        <mxCell id="6euVcw4S73GybOG8O7bd-17" value="" style="endArrow=classic;html=1;rounded=0;" edge="1" parent="1">
          <mxGeometry width="50" height="50" relative="1" as="geometry">
            <mxPoint x="120" y="320" as="sourcePoint" />
            <mxPoint x="440" y="320" as="targetPoint" />
          </mxGeometry>
        </mxCell>
        <mxCell id="6euVcw4S73GybOG8O7bd-18" value="&lt;font style=&quot;font-size: 18px;&quot;&gt;Provide Payment Details&lt;/font&gt;" style="text;whiteSpace=wrap;html=1;" vertex="1" parent="1">
          <mxGeometry x="180" y="290" width="230" height="50" as="geometry" />
        </mxCell>
        <mxCell id="6euVcw4S73GybOG8O7bd-21" value="&lt;font style=&quot;font-size: 18px;&quot;&gt;Validate and Process Payment&lt;/font&gt;" style="text;whiteSpace=wrap;html=1;" vertex="1" parent="1">
          <mxGeometry x="450" y="290" width="260" height="50" as="geometry" />
        </mxCell>
        <mxCell id="6euVcw4S73GybOG8O7bd-22" value="&lt;font style=&quot;font-size: 18px;&quot;&gt;Payment Confirmation&lt;/font&gt;" style="text;whiteSpace=wrap;html=1;" vertex="1" parent="1">
          <mxGeometry x="480" y="330" width="200" height="50" as="geometry" />
        </mxCell>
        <mxCell id="6euVcw4S73GybOG8O7bd-23" value="" style="endArrow=classic;html=1;rounded=0;" edge="1" parent="1">
          <mxGeometry width="50" height="50" relative="1" as="geometry">
            <mxPoint x="440" y="380" as="sourcePoint" />
            <mxPoint x="120" y="380" as="targetPoint" />
          </mxGeometry>
        </mxCell>
        <mxCell id="6euVcw4S73GybOG8O7bd-24" value="&lt;font style=&quot;font-size: 18px;&quot;&gt;Registration Confirmation&lt;/font&gt;" style="text;whiteSpace=wrap;html=1;" vertex="1" parent="1">
          <mxGeometry x="180" y="350" width="210" height="50" as="geometry" />
        </mxCell>
        <mxCell id="6euVcw4S73GybOG8O7bd-25" value="&lt;font style=&quot;font-size: 18px;&quot;&gt;PaymentTransaction&lt;/font&gt;" style="rounded=1;whiteSpace=wrap;html=1;fillColor=#f8cecc;strokeColor=#b85450;" vertex="1" parent="1">
          <mxGeometry x="880" y="120" width="200" height="60" as="geometry" />
        </mxCell>
        <mxCell id="6euVcw4S73GybOG8O7bd-26" value="&lt;font style=&quot;font-size: 18px;&quot;&gt;PaymentTransaction&lt;/font&gt;" style="rounded=1;whiteSpace=wrap;html=1;fillColor=#f8cecc;strokeColor=#b85450;" vertex="1" parent="1">
          <mxGeometry x="880" y="510" width="200" height="60" as="geometry" />
        </mxCell>
        <mxCell id="6euVcw4S73GybOG8O7bd-27" value="" style="endArrow=classic;html=1;rounded=0;" edge="1" parent="1">
          <mxGeometry width="50" height="50" relative="1" as="geometry">
            <mxPoint x="440" y="420" as="sourcePoint" />
            <mxPoint x="980" y="420" as="targetPoint" />
          </mxGeometry>
        </mxCell>
        <mxCell id="6euVcw4S73GybOG8O7bd-28" value="" style="endArrow=none;dashed=1;html=1;rounded=0;entryX=0.5;entryY=1;entryDx=0;entryDy=0;exitX=0.5;exitY=0;exitDx=0;exitDy=0;" edge="1" parent="1" source="6euVcw4S73GybOG8O7bd-26" target="6euVcw4S73GybOG8O7bd-25">
          <mxGeometry width="50" height="50" relative="1" as="geometry">
            <mxPoint x="1069.5" y="480" as="sourcePoint" />
            <mxPoint x="1069" y="180" as="targetPoint" />
          </mxGeometry>
        </mxCell>
        <mxCell id="6euVcw4S73GybOG8O7bd-30" value="&lt;font style=&quot;font-size: 18px;&quot;&gt;Log Transaction&lt;/font&gt;" style="text;whiteSpace=wrap;html=1;" vertex="1" parent="1">
          <mxGeometry x="760" y="390" width="200" height="50" as="geometry" />
        </mxCell>
        <mxCell id="6euVcw4S73GybOG8O7bd-31" value="&lt;font style=&quot;font-size: 18px;&quot;&gt;Send Payment Receipt&lt;br&gt;&lt;/font&gt;" style="text;whiteSpace=wrap;html=1;" vertex="1" parent="1">
          <mxGeometry x="180" y="410" width="200" height="50" as="geometry" />
        </mxCell>
        <mxCell id="6euVcw4S73GybOG8O7bd-33" value="&lt;font style=&quot;font-size: 18px;&quot;&gt;Airline_Database&lt;/font&gt;" style="rounded=1;whiteSpace=wrap;html=1;fillColor=#d5e8d4;strokeColor=#82b366;" vertex="1" parent="1">
          <mxGeometry x="1140" y="120" width="200" height="60" as="geometry" />
        </mxCell>
        <mxCell id="6euVcw4S73GybOG8O7bd-34" value="&lt;font style=&quot;font-size: 18px;&quot;&gt;Airline_Database&lt;/font&gt;" style="rounded=1;whiteSpace=wrap;html=1;fillColor=#d5e8d4;strokeColor=#82b366;" vertex="1" parent="1">
          <mxGeometry x="1140" y="510" width="200" height="60" as="geometry" />
        </mxCell>
        <mxCell id="6euVcw4S73GybOG8O7bd-35" value="" style="endArrow=none;dashed=1;html=1;rounded=0;entryX=0.5;entryY=1;entryDx=0;entryDy=0;exitX=0.5;exitY=0;exitDx=0;exitDy=0;" edge="1" parent="1" source="6euVcw4S73GybOG8O7bd-34" target="6euVcw4S73GybOG8O7bd-33">
          <mxGeometry width="50" height="50" relative="1" as="geometry">
            <mxPoint x="1349.5" y="480" as="sourcePoint" />
            <mxPoint x="1349" y="180" as="targetPoint" />
          </mxGeometry>
        </mxCell>
        <mxCell id="6euVcw4S73GybOG8O7bd-36" value="" style="endArrow=classic;html=1;rounded=0;" edge="1" parent="1">
          <mxGeometry width="50" height="50" relative="1" as="geometry">
            <mxPoint x="980" y="420" as="sourcePoint" />
            <mxPoint x="1240" y="420" as="targetPoint" />
          </mxGeometry>
        </mxCell>
        <mxCell id="6euVcw4S73GybOG8O7bd-37" value="&lt;font style=&quot;font-size: 18px;&quot;&gt;Record Transaction&lt;/font&gt;" style="text;whiteSpace=wrap;html=1;" vertex="1" parent="1">
          <mxGeometry x="1020" y="390" width="200" height="50" as="geometry" />
        </mxCell>
        <mxCell id="6euVcw4S73GybOG8O7bd-38" value="&lt;font style=&quot;font-size: 18px;&quot;&gt;Email_Service&lt;/font&gt;" style="rounded=1;whiteSpace=wrap;html=1;fillColor=#f5f5f5;strokeColor=#666666;fontColor=#333333;" vertex="1" parent="1">
          <mxGeometry x="1400" y="120" width="200" height="60" as="geometry" />
        </mxCell>
        <mxCell id="6euVcw4S73GybOG8O7bd-39" value="&lt;font style=&quot;font-size: 18px;&quot;&gt;Email_Service&lt;/font&gt;" style="rounded=1;whiteSpace=wrap;html=1;fillColor=#f5f5f5;strokeColor=#666666;fontColor=#333333;" vertex="1" parent="1">
          <mxGeometry x="1400" y="510" width="200" height="60" as="geometry" />
        </mxCell>
        <mxCell id="6euVcw4S73GybOG8O7bd-40" value="" style="endArrow=none;dashed=1;html=1;rounded=0;entryX=0.5;entryY=1;entryDx=0;entryDy=0;exitX=0.5;exitY=0;exitDx=0;exitDy=0;" edge="1" parent="1" source="6euVcw4S73GybOG8O7bd-39" target="6euVcw4S73GybOG8O7bd-38">
          <mxGeometry width="50" height="50" relative="1" as="geometry">
            <mxPoint x="1629.5" y="480" as="sourcePoint" />
            <mxPoint x="1629" y="180" as="targetPoint" />
          </mxGeometry>
        </mxCell>
        <mxCell id="6euVcw4S73GybOG8O7bd-41" value="" style="endArrow=classic;html=1;rounded=0;" edge="1" parent="1">
          <mxGeometry width="50" height="50" relative="1" as="geometry">
            <mxPoint x="440" y="440" as="sourcePoint" />
            <mxPoint x="120" y="440" as="targetPoint" />
          </mxGeometry>
        </mxCell>
        <mxCell id="6euVcw4S73GybOG8O7bd-42" value="" style="endArrow=classic;html=1;rounded=0;" edge="1" parent="1">
          <mxGeometry width="50" height="50" relative="1" as="geometry">
            <mxPoint x="440" y="460" as="sourcePoint" />
            <mxPoint x="1500" y="460" as="targetPoint" />
          </mxGeometry>
        </mxCell>
        <mxCell id="6euVcw4S73GybOG8O7bd-43" value="&lt;font style=&quot;font-size: 18px;&quot;&gt;Request Receipt Delivery&lt;/font&gt;" style="text;whiteSpace=wrap;html=1;" vertex="1" parent="1">
          <mxGeometry x="1260" y="430" width="240" height="50" as="geometry" />
        </mxCell>
        <mxCell id="6euVcw4S73GybOG8O7bd-44" value="" style="endArrow=classic;html=1;rounded=0;" edge="1" parent="1">
          <mxGeometry width="50" height="50" relative="1" as="geometry">
            <mxPoint x="1500" y="490" as="sourcePoint" />
            <mxPoint x="120" y="490" as="targetPoint" />
          </mxGeometry>
        </mxCell>
        <mxCell id="6euVcw4S73GybOG8O7bd-45" value="&lt;font style=&quot;font-size: 18px;&quot;&gt;Deliver Receipt Email&lt;br&gt;&lt;/font&gt;" style="text;whiteSpace=wrap;html=1;" vertex="1" parent="1">
          <mxGeometry x="180" y="460" width="200" height="50" as="geometry" />
        </mxCell>
      </root>
    </mxGraphModel>
  </diagram>
</mxfile>
